<mxfile host="app.diagrams.net" agent="Mozilla/5.0 (Windows NT 10.0; Win64; x64) AppleWebKit/537.36 (KHTML, like Gecko) Chrome/128.0.0.0 Safari/537.36" version="24.7.6">
  <diagram name="Page-1" id="18chatXRGIeRU94KHBRK">
    <mxGraphModel dx="2625" dy="2405" grid="1" gridSize="10" guides="1" tooltips="1" connect="1" arrows="1" fold="1" page="1" pageScale="1" pageWidth="850" pageHeight="1100" math="0" shadow="0">
      <root>
        <mxCell id="0" />
        <mxCell id="1" parent="0" />
        <mxCell id="V7hkrKu_K13jUBI3r2nu-112" style="edgeStyle=orthogonalEdgeStyle;rounded=0;orthogonalLoop=1;jettySize=auto;html=1;entryX=0;entryY=0.5;entryDx=0;entryDy=0;" edge="1" parent="1" source="V7hkrKu_K13jUBI3r2nu-1" target="V7hkrKu_K13jUBI3r2nu-110">
          <mxGeometry relative="1" as="geometry">
            <mxPoint x="720" y="-975" as="targetPoint" />
            <Array as="points">
              <mxPoint x="590" y="-840" />
              <mxPoint x="590" y="-970" />
            </Array>
          </mxGeometry>
        </mxCell>
        <mxCell id="V7hkrKu_K13jUBI3r2nu-1" value="User" style="sketch=0;outlineConnect=0;fontColor=#232F3E;gradientColor=none;strokeColor=#232F3E;fillColor=#ffffff;dashed=0;verticalLabelPosition=bottom;verticalAlign=top;align=center;html=1;fontSize=12;fontStyle=0;aspect=fixed;shape=mxgraph.aws4.resourceIcon;resIcon=mxgraph.aws4.user;" vertex="1" parent="1">
          <mxGeometry x="510" y="-870" width="60" height="60" as="geometry" />
        </mxCell>
        <mxCell id="V7hkrKu_K13jUBI3r2nu-10" value="" style="edgeStyle=orthogonalEdgeStyle;rounded=0;orthogonalLoop=1;jettySize=auto;html=1;entryX=0.5;entryY=0;entryDx=0;entryDy=0;" edge="1" parent="1" source="V7hkrKu_K13jUBI3r2nu-3" target="V7hkrKu_K13jUBI3r2nu-7">
          <mxGeometry relative="1" as="geometry" />
        </mxCell>
        <mxCell id="V7hkrKu_K13jUBI3r2nu-3" value="Register User" style="rounded=1;whiteSpace=wrap;html=1;" vertex="1" parent="1">
          <mxGeometry x="160" y="-1065" width="130" height="30" as="geometry" />
        </mxCell>
        <mxCell id="V7hkrKu_K13jUBI3r2nu-11" value="" style="edgeStyle=orthogonalEdgeStyle;rounded=0;orthogonalLoop=1;jettySize=auto;html=1;" edge="1" parent="1" source="V7hkrKu_K13jUBI3r2nu-7" target="V7hkrKu_K13jUBI3r2nu-8">
          <mxGeometry relative="1" as="geometry" />
        </mxCell>
        <mxCell id="V7hkrKu_K13jUBI3r2nu-7" value="Verify Email" style="rounded=1;whiteSpace=wrap;html=1;" vertex="1" parent="1">
          <mxGeometry x="160" y="-965" width="130" height="30" as="geometry" />
        </mxCell>
        <mxCell id="V7hkrKu_K13jUBI3r2nu-12" value="" style="edgeStyle=orthogonalEdgeStyle;rounded=0;orthogonalLoop=1;jettySize=auto;html=1;" edge="1" parent="1" source="V7hkrKu_K13jUBI3r2nu-8" target="V7hkrKu_K13jUBI3r2nu-1">
          <mxGeometry relative="1" as="geometry" />
        </mxCell>
        <mxCell id="V7hkrKu_K13jUBI3r2nu-18" style="edgeStyle=orthogonalEdgeStyle;rounded=0;orthogonalLoop=1;jettySize=auto;html=1;" edge="1" parent="1" source="V7hkrKu_K13jUBI3r2nu-8">
          <mxGeometry relative="1" as="geometry">
            <mxPoint x="530" y="-575" as="targetPoint" />
            <Array as="points">
              <mxPoint x="225" y="-575" />
              <mxPoint x="510" y="-575" />
            </Array>
          </mxGeometry>
        </mxCell>
        <mxCell id="V7hkrKu_K13jUBI3r2nu-8" value="Login" style="rounded=1;whiteSpace=wrap;html=1;" vertex="1" parent="1">
          <mxGeometry x="160" y="-855" width="130" height="30" as="geometry" />
        </mxCell>
        <mxCell id="V7hkrKu_K13jUBI3r2nu-76" style="edgeStyle=orthogonalEdgeStyle;rounded=0;orthogonalLoop=1;jettySize=auto;html=1;entryX=0;entryY=0.5;entryDx=0;entryDy=0;" edge="1" parent="1" target="V7hkrKu_K13jUBI3r2nu-61">
          <mxGeometry relative="1" as="geometry">
            <mxPoint x="960" y="-909.98" as="targetPoint" />
            <mxPoint x="601.0999999999999" y="-574.9998305084747" as="sourcePoint" />
            <Array as="points">
              <mxPoint x="680" y="-575" />
              <mxPoint x="680" y="-750" />
            </Array>
          </mxGeometry>
        </mxCell>
        <mxCell id="V7hkrKu_K13jUBI3r2nu-15" value="" style="shadow=0;dashed=0;html=1;strokeColor=none;fillColor=#4495D1;labelPosition=center;verticalLabelPosition=bottom;verticalAlign=top;align=center;outlineConnect=0;shape=mxgraph.veeam.portal_admin;" vertex="1" parent="1">
          <mxGeometry x="550" y="-605" width="44.4" height="48.8" as="geometry" />
        </mxCell>
        <mxCell id="V7hkrKu_K13jUBI3r2nu-19" value="Admin" style="text;html=1;align=center;verticalAlign=middle;resizable=0;points=[];autosize=1;strokeColor=none;fillColor=none;" vertex="1" parent="1">
          <mxGeometry x="538" y="-555" width="60" height="30" as="geometry" />
        </mxCell>
        <mxCell id="V7hkrKu_K13jUBI3r2nu-20" value="Logedin as Student" style="text;html=1;align=center;verticalAlign=middle;resizable=0;points=[];autosize=1;strokeColor=none;fillColor=none;" vertex="1" parent="1">
          <mxGeometry x="332.8" y="-840" width="130" height="30" as="geometry" />
        </mxCell>
        <mxCell id="V7hkrKu_K13jUBI3r2nu-21" value="Loged in as Admin" style="text;html=1;align=center;verticalAlign=middle;resizable=0;points=[];autosize=1;strokeColor=none;fillColor=none;" vertex="1" parent="1">
          <mxGeometry x="320" y="-605" width="120" height="30" as="geometry" />
        </mxCell>
        <mxCell id="V7hkrKu_K13jUBI3r2nu-22" value="&lt;b&gt;POST&lt;/b&gt; /api/user/register" style="text;html=1;align=center;verticalAlign=middle;resizable=0;points=[];autosize=1;strokeColor=none;fillColor=none;" vertex="1" parent="1">
          <mxGeometry x="220" y="-1015" width="150" height="30" as="geometry" />
        </mxCell>
        <mxCell id="V7hkrKu_K13jUBI3r2nu-23" value="&lt;b&gt;POST&lt;/b&gt; /api/user/verify-email" style="text;html=1;align=center;verticalAlign=middle;resizable=0;points=[];autosize=1;strokeColor=none;fillColor=none;" vertex="1" parent="1">
          <mxGeometry x="230" y="-905" width="170" height="30" as="geometry" />
        </mxCell>
        <mxCell id="V7hkrKu_K13jUBI3r2nu-24" value="&lt;b&gt;POST&lt;/b&gt; /api/user/login" style="text;html=1;align=center;verticalAlign=middle;resizable=0;points=[];autosize=1;strokeColor=none;fillColor=none;" vertex="1" parent="1">
          <mxGeometry x="230" y="-775" width="130" height="30" as="geometry" />
        </mxCell>
        <mxCell id="V7hkrKu_K13jUBI3r2nu-40" value="" style="edgeStyle=orthogonalEdgeStyle;rounded=0;orthogonalLoop=1;jettySize=auto;html=1;entryX=0;entryY=0.5;entryDx=0;entryDy=0;exitX=1;exitY=0.5;exitDx=0;exitDy=0;" edge="1" parent="1" target="V7hkrKu_K13jUBI3r2nu-43" source="V7hkrKu_K13jUBI3r2nu-49">
          <mxGeometry relative="1" as="geometry">
            <mxPoint x="1578" y="-862" as="sourcePoint" />
            <mxPoint x="1688" y="-1007" as="targetPoint" />
            <Array as="points">
              <mxPoint x="1570" y="-847" />
              <mxPoint x="1638" y="-847" />
              <mxPoint x="1638" y="-1022" />
            </Array>
          </mxGeometry>
        </mxCell>
        <mxCell id="V7hkrKu_K13jUBI3r2nu-42" value="&lt;b&gt;GET&lt;/b&gt; /api/user/me" style="text;html=1;align=center;verticalAlign=middle;resizable=0;points=[];autosize=1;strokeColor=none;fillColor=none;" vertex="1" parent="1">
          <mxGeometry x="1673" y="-1057" width="120" height="30" as="geometry" />
        </mxCell>
        <mxCell id="V7hkrKu_K13jUBI3r2nu-43" value="Profile access" style="rounded=1;whiteSpace=wrap;html=1;" vertex="1" parent="1">
          <mxGeometry x="1850" y="-1037" width="130" height="30" as="geometry" />
        </mxCell>
        <mxCell id="V7hkrKu_K13jUBI3r2nu-44" value="Log out" style="rounded=1;whiteSpace=wrap;html=1;" vertex="1" parent="1">
          <mxGeometry x="1850" y="-977" width="130" height="30" as="geometry" />
        </mxCell>
        <mxCell id="V7hkrKu_K13jUBI3r2nu-45" value="&lt;b&gt;POST&lt;/b&gt; /api/user/logout" style="text;html=1;align=center;verticalAlign=middle;resizable=0;points=[];autosize=1;strokeColor=none;fillColor=none;" vertex="1" parent="1">
          <mxGeometry x="1668" y="-997" width="140" height="30" as="geometry" />
        </mxCell>
        <mxCell id="V7hkrKu_K13jUBI3r2nu-46" value="Change Password" style="rounded=1;whiteSpace=wrap;html=1;" vertex="1" parent="1">
          <mxGeometry x="1850" y="-917" width="130" height="30" as="geometry" />
        </mxCell>
        <mxCell id="V7hkrKu_K13jUBI3r2nu-47" value="&lt;b&gt;POST&lt;/b&gt; /api/user/change-password" style="text;html=1;align=center;verticalAlign=middle;resizable=0;points=[];autosize=1;strokeColor=none;fillColor=none;" vertex="1" parent="1">
          <mxGeometry x="1638" y="-937" width="200" height="30" as="geometry" />
        </mxCell>
        <mxCell id="V7hkrKu_K13jUBI3r2nu-48" value="" style="edgeStyle=orthogonalEdgeStyle;rounded=0;orthogonalLoop=1;jettySize=auto;html=1;entryX=0;entryY=0.5;entryDx=0;entryDy=0;" edge="1" parent="1" target="V7hkrKu_K13jUBI3r2nu-46">
          <mxGeometry relative="1" as="geometry">
            <mxPoint x="1638" y="-902.0899999999999" as="sourcePoint" />
            <mxPoint x="1836" y="-902.0899999999999" as="targetPoint" />
            <Array as="points" />
          </mxGeometry>
        </mxCell>
        <mxCell id="V7hkrKu_K13jUBI3r2nu-49" value="General Routes after Login" style="rounded=1;whiteSpace=wrap;html=1;" vertex="1" parent="1">
          <mxGeometry x="1390" y="-877" width="180" height="60" as="geometry" />
        </mxCell>
        <mxCell id="V7hkrKu_K13jUBI3r2nu-51" value="" style="edgeStyle=orthogonalEdgeStyle;rounded=0;orthogonalLoop=1;jettySize=auto;html=1;entryX=0;entryY=0.5;entryDx=0;entryDy=0;" edge="1" parent="1" target="V7hkrKu_K13jUBI3r2nu-44">
          <mxGeometry relative="1" as="geometry">
            <mxPoint x="1638" y="-962.53" as="sourcePoint" />
            <mxPoint x="1836" y="-962.53" as="targetPoint" />
            <Array as="points" />
          </mxGeometry>
        </mxCell>
        <mxCell id="V7hkrKu_K13jUBI3r2nu-52" value="&lt;b&gt;POST&lt;/b&gt; /api/user/reset-password" style="text;html=1;align=center;verticalAlign=middle;resizable=0;points=[];autosize=1;strokeColor=none;fillColor=none;" vertex="1" parent="1">
          <mxGeometry x="1638" y="-877" width="190" height="30" as="geometry" />
        </mxCell>
        <mxCell id="V7hkrKu_K13jUBI3r2nu-53" value="Send Reset Password Link" style="rounded=1;whiteSpace=wrap;html=1;" vertex="1" parent="1">
          <mxGeometry x="1850" y="-862" width="180" height="30" as="geometry" />
        </mxCell>
        <mxCell id="V7hkrKu_K13jUBI3r2nu-54" value="Reset Password" style="rounded=1;whiteSpace=wrap;html=1;" vertex="1" parent="1">
          <mxGeometry x="1900" y="-797" width="130" height="30" as="geometry" />
        </mxCell>
        <mxCell id="V7hkrKu_K13jUBI3r2nu-55" value="&lt;b&gt;POST&lt;/b&gt; /api/user/reset-password/:id/:token" style="text;html=1;align=center;verticalAlign=middle;resizable=0;points=[];autosize=1;strokeColor=none;fillColor=none;" vertex="1" parent="1">
          <mxGeometry x="1650" y="-817" width="240" height="30" as="geometry" />
        </mxCell>
        <mxCell id="V7hkrKu_K13jUBI3r2nu-57" value="" style="edgeStyle=orthogonalEdgeStyle;rounded=0;orthogonalLoop=1;jettySize=auto;html=1;entryX=0;entryY=0.5;entryDx=0;entryDy=0;" edge="1" parent="1" target="V7hkrKu_K13jUBI3r2nu-53">
          <mxGeometry relative="1" as="geometry">
            <mxPoint x="1638" y="-848.27" as="sourcePoint" />
            <mxPoint x="1836" y="-845.77" as="targetPoint" />
            <Array as="points">
              <mxPoint x="1638" y="-847" />
              <mxPoint x="1850" y="-847" />
            </Array>
          </mxGeometry>
        </mxCell>
        <mxCell id="V7hkrKu_K13jUBI3r2nu-60" value="" style="edgeStyle=orthogonalEdgeStyle;rounded=0;orthogonalLoop=1;jettySize=auto;html=1;entryX=0;entryY=0.5;entryDx=0;entryDy=0;" edge="1" parent="1" target="V7hkrKu_K13jUBI3r2nu-54">
          <mxGeometry relative="1" as="geometry">
            <mxPoint x="1638" y="-847" as="sourcePoint" />
            <mxPoint x="1898" y="-782" as="targetPoint" />
            <Array as="points">
              <mxPoint x="1638" y="-782" />
            </Array>
          </mxGeometry>
        </mxCell>
        <mxCell id="V7hkrKu_K13jUBI3r2nu-61" value="Get All User" style="rounded=1;whiteSpace=wrap;html=1;" vertex="1" parent="1">
          <mxGeometry x="1220" y="-765" width="130" height="30" as="geometry" />
        </mxCell>
        <mxCell id="V7hkrKu_K13jUBI3r2nu-62" value="Delete User" style="rounded=1;whiteSpace=wrap;html=1;" vertex="1" parent="1">
          <mxGeometry x="1220" y="-715" width="130" height="30" as="geometry" />
        </mxCell>
        <mxCell id="V7hkrKu_K13jUBI3r2nu-63" value="Get User by Id" style="rounded=1;whiteSpace=wrap;html=1;" vertex="1" parent="1">
          <mxGeometry x="1220" y="-665" width="130" height="30" as="geometry" />
        </mxCell>
        <mxCell id="V7hkrKu_K13jUBI3r2nu-64" value="Create Category" style="rounded=1;whiteSpace=wrap;html=1;" vertex="1" parent="1">
          <mxGeometry x="1220" y="-615" width="130" height="30" as="geometry" />
        </mxCell>
        <mxCell id="V7hkrKu_K13jUBI3r2nu-65" value="Get All Category" style="rounded=1;whiteSpace=wrap;html=1;" vertex="1" parent="1">
          <mxGeometry x="1220" y="-565" width="130" height="30" as="geometry" />
        </mxCell>
        <mxCell id="V7hkrKu_K13jUBI3r2nu-66" value="Delete Category" style="rounded=1;whiteSpace=wrap;html=1;" vertex="1" parent="1">
          <mxGeometry x="1220" y="-515" width="130" height="30" as="geometry" />
        </mxCell>
        <mxCell id="V7hkrKu_K13jUBI3r2nu-67" value="Update Category" style="rounded=1;whiteSpace=wrap;html=1;" vertex="1" parent="1">
          <mxGeometry x="1220" y="-465" width="130" height="30" as="geometry" />
        </mxCell>
        <mxCell id="V7hkrKu_K13jUBI3r2nu-68" value="Create Book" style="rounded=1;whiteSpace=wrap;html=1;" vertex="1" parent="1">
          <mxGeometry x="1220" y="-415" width="130" height="30" as="geometry" />
        </mxCell>
        <mxCell id="V7hkrKu_K13jUBI3r2nu-69" value="Update Book" style="rounded=1;whiteSpace=wrap;html=1;" vertex="1" parent="1">
          <mxGeometry x="1220" y="-265" width="130" height="30" as="geometry" />
        </mxCell>
        <mxCell id="V7hkrKu_K13jUBI3r2nu-70" value="Get All Book" style="rounded=1;whiteSpace=wrap;html=1;" vertex="1" parent="1">
          <mxGeometry x="1220" y="-365" width="130" height="30" as="geometry" />
        </mxCell>
        <mxCell id="V7hkrKu_K13jUBI3r2nu-71" value="Delete Book" style="rounded=1;whiteSpace=wrap;html=1;" vertex="1" parent="1">
          <mxGeometry x="1220" y="-215" width="130" height="30" as="geometry" />
        </mxCell>
        <mxCell id="V7hkrKu_K13jUBI3r2nu-72" value="Get Book by Id" style="rounded=1;whiteSpace=wrap;html=1;" vertex="1" parent="1">
          <mxGeometry x="1220" y="-315" width="130" height="30" as="geometry" />
        </mxCell>
        <mxCell id="V7hkrKu_K13jUBI3r2nu-73" value="Create Loan" style="rounded=1;whiteSpace=wrap;html=1;" vertex="1" parent="1">
          <mxGeometry x="1220" y="-165" width="130" height="30" as="geometry" />
        </mxCell>
        <mxCell id="V7hkrKu_K13jUBI3r2nu-74" value="Get all Loan" style="rounded=1;whiteSpace=wrap;html=1;" vertex="1" parent="1">
          <mxGeometry x="1220" y="-115" width="130" height="30" as="geometry" />
        </mxCell>
        <mxCell id="V7hkrKu_K13jUBI3r2nu-75" value="Return Book" style="rounded=1;whiteSpace=wrap;html=1;" vertex="1" parent="1">
          <mxGeometry x="1220" y="-65" width="130" height="30" as="geometry" />
        </mxCell>
        <mxCell id="V7hkrKu_K13jUBI3r2nu-77" style="edgeStyle=orthogonalEdgeStyle;rounded=0;orthogonalLoop=1;jettySize=auto;html=1;entryX=0;entryY=0.5;entryDx=0;entryDy=0;" edge="1" parent="1" target="V7hkrKu_K13jUBI3r2nu-75">
          <mxGeometry relative="1" as="geometry">
            <mxPoint x="920" y="-45" as="targetPoint" />
            <mxPoint x="680" y="-575" as="sourcePoint" />
            <Array as="points">
              <mxPoint x="680" y="-50" />
            </Array>
          </mxGeometry>
        </mxCell>
        <mxCell id="V7hkrKu_K13jUBI3r2nu-78" value="" style="edgeStyle=orthogonalEdgeStyle;rounded=0;orthogonalLoop=1;jettySize=auto;html=1;entryX=0;entryY=0.5;entryDx=0;entryDy=0;" edge="1" parent="1" target="V7hkrKu_K13jUBI3r2nu-62">
          <mxGeometry relative="1" as="geometry">
            <mxPoint x="680" y="-699.15" as="sourcePoint" />
            <mxPoint x="1230" y="-699.2" as="targetPoint" />
            <Array as="points">
              <mxPoint x="690" y="-699" />
            </Array>
          </mxGeometry>
        </mxCell>
        <mxCell id="V7hkrKu_K13jUBI3r2nu-79" value="" style="edgeStyle=orthogonalEdgeStyle;rounded=0;orthogonalLoop=1;jettySize=auto;html=1;entryX=0;entryY=0.5;entryDx=0;entryDy=0;" edge="1" parent="1">
          <mxGeometry relative="1" as="geometry">
            <mxPoint x="680" y="-649.6099999999999" as="sourcePoint" />
            <mxPoint x="1220" y="-650.46" as="targetPoint" />
            <Array as="points">
              <mxPoint x="690" y="-649.46" />
            </Array>
          </mxGeometry>
        </mxCell>
        <mxCell id="V7hkrKu_K13jUBI3r2nu-80" value="" style="edgeStyle=orthogonalEdgeStyle;rounded=0;orthogonalLoop=1;jettySize=auto;html=1;entryX=0;entryY=0.5;entryDx=0;entryDy=0;" edge="1" parent="1">
          <mxGeometry relative="1" as="geometry">
            <mxPoint x="680" y="-599.6099999999999" as="sourcePoint" />
            <mxPoint x="1220" y="-600.46" as="targetPoint" />
            <Array as="points">
              <mxPoint x="690" y="-599.46" />
            </Array>
          </mxGeometry>
        </mxCell>
        <mxCell id="V7hkrKu_K13jUBI3r2nu-81" value="" style="edgeStyle=orthogonalEdgeStyle;rounded=0;orthogonalLoop=1;jettySize=auto;html=1;entryX=0;entryY=0.5;entryDx=0;entryDy=0;" edge="1" parent="1">
          <mxGeometry relative="1" as="geometry">
            <mxPoint x="680" y="-549.61" as="sourcePoint" />
            <mxPoint x="1220" y="-550.46" as="targetPoint" />
            <Array as="points">
              <mxPoint x="690" y="-549.46" />
            </Array>
          </mxGeometry>
        </mxCell>
        <mxCell id="V7hkrKu_K13jUBI3r2nu-82" value="" style="edgeStyle=orthogonalEdgeStyle;rounded=0;orthogonalLoop=1;jettySize=auto;html=1;entryX=0;entryY=0.5;entryDx=0;entryDy=0;" edge="1" parent="1">
          <mxGeometry relative="1" as="geometry">
            <mxPoint x="680" y="-499.61" as="sourcePoint" />
            <mxPoint x="1220" y="-500.46000000000004" as="targetPoint" />
            <Array as="points">
              <mxPoint x="690" y="-499.46000000000004" />
            </Array>
          </mxGeometry>
        </mxCell>
        <mxCell id="V7hkrKu_K13jUBI3r2nu-85" value="" style="edgeStyle=orthogonalEdgeStyle;rounded=0;orthogonalLoop=1;jettySize=auto;html=1;entryX=0;entryY=0.5;entryDx=0;entryDy=0;" edge="1" parent="1">
          <mxGeometry relative="1" as="geometry">
            <mxPoint x="680" y="-449.61" as="sourcePoint" />
            <mxPoint x="1220" y="-450.46000000000004" as="targetPoint" />
            <Array as="points">
              <mxPoint x="690" y="-449.46000000000004" />
            </Array>
          </mxGeometry>
        </mxCell>
        <mxCell id="V7hkrKu_K13jUBI3r2nu-86" value="" style="edgeStyle=orthogonalEdgeStyle;rounded=0;orthogonalLoop=1;jettySize=auto;html=1;entryX=0;entryY=0.5;entryDx=0;entryDy=0;" edge="1" parent="1">
          <mxGeometry relative="1" as="geometry">
            <mxPoint x="680" y="-399.61" as="sourcePoint" />
            <mxPoint x="1220" y="-400.46000000000004" as="targetPoint" />
            <Array as="points">
              <mxPoint x="690" y="-399.46000000000004" />
            </Array>
          </mxGeometry>
        </mxCell>
        <mxCell id="V7hkrKu_K13jUBI3r2nu-87" value="" style="edgeStyle=orthogonalEdgeStyle;rounded=0;orthogonalLoop=1;jettySize=auto;html=1;entryX=0;entryY=0.5;entryDx=0;entryDy=0;" edge="1" parent="1">
          <mxGeometry relative="1" as="geometry">
            <mxPoint x="680" y="-349.5999999999999" as="sourcePoint" />
            <mxPoint x="1220" y="-350.45000000000005" as="targetPoint" />
            <Array as="points">
              <mxPoint x="690" y="-349.45000000000005" />
            </Array>
          </mxGeometry>
        </mxCell>
        <mxCell id="V7hkrKu_K13jUBI3r2nu-88" value="" style="edgeStyle=orthogonalEdgeStyle;rounded=0;orthogonalLoop=1;jettySize=auto;html=1;entryX=0;entryY=0.5;entryDx=0;entryDy=0;" edge="1" parent="1" source="V7hkrKu_K13jUBI3r2nu-104">
          <mxGeometry relative="1" as="geometry">
            <mxPoint x="680" y="-299.5999999999999" as="sourcePoint" />
            <mxPoint x="1220" y="-300.45000000000005" as="targetPoint" />
            <Array as="points">
              <mxPoint x="690" y="-299.45000000000005" />
            </Array>
          </mxGeometry>
        </mxCell>
        <mxCell id="V7hkrKu_K13jUBI3r2nu-90" value="" style="edgeStyle=orthogonalEdgeStyle;rounded=0;orthogonalLoop=1;jettySize=auto;html=1;entryX=0;entryY=0.5;entryDx=0;entryDy=0;" edge="1" parent="1">
          <mxGeometry relative="1" as="geometry">
            <mxPoint x="680" y="-249.5999999999999" as="sourcePoint" />
            <mxPoint x="1220" y="-250.45000000000005" as="targetPoint" />
            <Array as="points">
              <mxPoint x="690" y="-249.45000000000005" />
            </Array>
          </mxGeometry>
        </mxCell>
        <mxCell id="V7hkrKu_K13jUBI3r2nu-91" value="" style="edgeStyle=orthogonalEdgeStyle;rounded=0;orthogonalLoop=1;jettySize=auto;html=1;entryX=0;entryY=0.5;entryDx=0;entryDy=0;" edge="1" parent="1">
          <mxGeometry relative="1" as="geometry">
            <mxPoint x="680" y="-199.5999999999999" as="sourcePoint" />
            <mxPoint x="1220" y="-200.45000000000005" as="targetPoint" />
            <Array as="points">
              <mxPoint x="690" y="-199.45000000000005" />
            </Array>
          </mxGeometry>
        </mxCell>
        <mxCell id="V7hkrKu_K13jUBI3r2nu-92" value="" style="edgeStyle=orthogonalEdgeStyle;rounded=0;orthogonalLoop=1;jettySize=auto;html=1;entryX=0;entryY=0.5;entryDx=0;entryDy=0;" edge="1" parent="1">
          <mxGeometry relative="1" as="geometry">
            <mxPoint x="680" y="-149.5999999999999" as="sourcePoint" />
            <mxPoint x="1220" y="-150.45000000000005" as="targetPoint" />
            <Array as="points">
              <mxPoint x="690" y="-149.45000000000005" />
            </Array>
          </mxGeometry>
        </mxCell>
        <mxCell id="V7hkrKu_K13jUBI3r2nu-93" value="" style="edgeStyle=orthogonalEdgeStyle;rounded=0;orthogonalLoop=1;jettySize=auto;html=1;entryX=0;entryY=0.5;entryDx=0;entryDy=0;" edge="1" parent="1">
          <mxGeometry relative="1" as="geometry">
            <mxPoint x="680" y="-99.59999999999991" as="sourcePoint" />
            <mxPoint x="1220" y="-100.45000000000005" as="targetPoint" />
            <Array as="points">
              <mxPoint x="690" y="-99.45000000000005" />
            </Array>
          </mxGeometry>
        </mxCell>
        <mxCell id="V7hkrKu_K13jUBI3r2nu-94" value="&lt;b&gt;GET &lt;/b&gt;/api/admin/user" style="text;html=1;align=center;verticalAlign=middle;resizable=0;points=[];autosize=1;strokeColor=none;fillColor=none;" vertex="1" parent="1">
          <mxGeometry x="900" y="-785" width="130" height="30" as="geometry" />
        </mxCell>
        <mxCell id="V7hkrKu_K13jUBI3r2nu-95" value="&lt;b&gt;DELETE&amp;nbsp;&lt;/b&gt;/api/admin/user" style="text;html=1;align=center;verticalAlign=middle;resizable=0;points=[];autosize=1;strokeColor=none;fillColor=none;" vertex="1" parent="1">
          <mxGeometry x="885" y="-735" width="160" height="30" as="geometry" />
        </mxCell>
        <mxCell id="V7hkrKu_K13jUBI3r2nu-96" value="&lt;b&gt;GET &lt;/b&gt;/api/admin/user/:id" style="text;html=1;align=center;verticalAlign=middle;resizable=0;points=[];autosize=1;strokeColor=none;fillColor=none;" vertex="1" parent="1">
          <mxGeometry x="875" y="-675" width="150" height="30" as="geometry" />
        </mxCell>
        <mxCell id="V7hkrKu_K13jUBI3r2nu-97" value="&lt;b&gt;POST&amp;nbsp;&lt;/b&gt;/api/admin/category" style="text;html=1;align=center;verticalAlign=middle;resizable=0;points=[];autosize=1;strokeColor=none;fillColor=none;" vertex="1" parent="1">
          <mxGeometry x="870" y="-625" width="160" height="30" as="geometry" />
        </mxCell>
        <mxCell id="V7hkrKu_K13jUBI3r2nu-98" value="&lt;b&gt;GET &lt;/b&gt;/api/admin/category" style="text;html=1;align=center;verticalAlign=middle;resizable=0;points=[];autosize=1;strokeColor=none;fillColor=none;" vertex="1" parent="1">
          <mxGeometry x="860" y="-575" width="160" height="30" as="geometry" />
        </mxCell>
        <mxCell id="V7hkrKu_K13jUBI3r2nu-99" value="&lt;b&gt;DELETE&amp;nbsp;&lt;/b&gt;/api/admin/category" style="text;html=1;align=center;verticalAlign=middle;resizable=0;points=[];autosize=1;strokeColor=none;fillColor=none;" vertex="1" parent="1">
          <mxGeometry x="855" y="-525" width="180" height="30" as="geometry" />
        </mxCell>
        <mxCell id="V7hkrKu_K13jUBI3r2nu-100" value="&lt;b&gt;PUT&amp;nbsp;&lt;/b&gt;/api/admin/category" style="text;html=1;align=center;verticalAlign=middle;resizable=0;points=[];autosize=1;strokeColor=none;fillColor=none;" vertex="1" parent="1">
          <mxGeometry x="875" y="-475" width="160" height="30" as="geometry" />
        </mxCell>
        <mxCell id="V7hkrKu_K13jUBI3r2nu-101" value="&lt;b&gt;POST&amp;nbsp;&lt;/b&gt;/api/admin/book" style="text;html=1;align=center;verticalAlign=middle;resizable=0;points=[];autosize=1;strokeColor=none;fillColor=none;" vertex="1" parent="1">
          <mxGeometry x="870" y="-425" width="140" height="30" as="geometry" />
        </mxCell>
        <mxCell id="V7hkrKu_K13jUBI3r2nu-102" value="&lt;b&gt;GET&amp;nbsp;&lt;/b&gt;/api/admin/book" style="text;html=1;align=center;verticalAlign=middle;resizable=0;points=[];autosize=1;strokeColor=none;fillColor=none;" vertex="1" parent="1">
          <mxGeometry x="880" y="-375" width="140" height="30" as="geometry" />
        </mxCell>
        <mxCell id="V7hkrKu_K13jUBI3r2nu-103" value="&lt;b&gt;PUT&amp;nbsp;&lt;/b&gt;/api/admin/book" style="text;html=1;align=center;verticalAlign=middle;resizable=0;points=[];autosize=1;strokeColor=none;fillColor=none;" vertex="1" parent="1">
          <mxGeometry x="875" y="-275" width="140" height="30" as="geometry" />
        </mxCell>
        <mxCell id="V7hkrKu_K13jUBI3r2nu-104" value="&lt;b&gt;GET&amp;nbsp;&lt;/b&gt;/api/admin/book/:id" style="text;html=1;align=center;verticalAlign=middle;resizable=0;points=[];autosize=1;strokeColor=none;fillColor=none;" vertex="1" parent="1">
          <mxGeometry x="870" y="-325" width="150" height="30" as="geometry" />
        </mxCell>
        <mxCell id="V7hkrKu_K13jUBI3r2nu-106" value="&lt;b&gt;DELETE&amp;nbsp;&lt;/b&gt;/api/admin/book" style="text;html=1;align=center;verticalAlign=middle;resizable=0;points=[];autosize=1;strokeColor=none;fillColor=none;" vertex="1" parent="1">
          <mxGeometry x="865" y="-225" width="160" height="30" as="geometry" />
        </mxCell>
        <mxCell id="V7hkrKu_K13jUBI3r2nu-107" value="&lt;b&gt;POST&amp;nbsp;&lt;/b&gt;/api/admin/loan" style="text;html=1;align=center;verticalAlign=middle;resizable=0;points=[];autosize=1;strokeColor=none;fillColor=none;" vertex="1" parent="1">
          <mxGeometry x="870" y="-175" width="140" height="30" as="geometry" />
        </mxCell>
        <mxCell id="V7hkrKu_K13jUBI3r2nu-108" value="&lt;b&gt;GET&amp;nbsp;&lt;/b&gt;/api/admin/loan" style="text;html=1;align=center;verticalAlign=middle;resizable=0;points=[];autosize=1;strokeColor=none;fillColor=none;" vertex="1" parent="1">
          <mxGeometry x="875" y="-125" width="130" height="30" as="geometry" />
        </mxCell>
        <mxCell id="V7hkrKu_K13jUBI3r2nu-109" value="&lt;b&gt;PUT&amp;nbsp;&lt;/b&gt;/api/admin/loan" style="text;html=1;align=center;verticalAlign=middle;resizable=0;points=[];autosize=1;strokeColor=none;fillColor=none;" vertex="1" parent="1">
          <mxGeometry x="875" y="-75" width="130" height="30" as="geometry" />
        </mxCell>
        <mxCell id="V7hkrKu_K13jUBI3r2nu-110" value="Get All Book" style="rounded=1;whiteSpace=wrap;html=1;" vertex="1" parent="1">
          <mxGeometry x="855" y="-985" width="130" height="30" as="geometry" />
        </mxCell>
        <mxCell id="V7hkrKu_K13jUBI3r2nu-111" value="Get Book by Id" style="rounded=1;whiteSpace=wrap;html=1;" vertex="1" parent="1">
          <mxGeometry x="855" y="-915" width="130" height="30" as="geometry" />
        </mxCell>
        <mxCell id="V7hkrKu_K13jUBI3r2nu-113" value="" style="edgeStyle=orthogonalEdgeStyle;rounded=0;orthogonalLoop=1;jettySize=auto;html=1;entryX=0;entryY=0.5;entryDx=0;entryDy=0;" edge="1" parent="1" target="V7hkrKu_K13jUBI3r2nu-111">
          <mxGeometry relative="1" as="geometry">
            <mxPoint x="590" y="-899.61" as="sourcePoint" />
            <mxPoint x="1130" y="-900.46" as="targetPoint" />
            <Array as="points" />
          </mxGeometry>
        </mxCell>
        <mxCell id="V7hkrKu_K13jUBI3r2nu-114" value="&lt;b&gt;GET&amp;nbsp;&lt;/b&gt;/api/book" style="text;html=1;align=center;verticalAlign=middle;resizable=0;points=[];autosize=1;strokeColor=none;fillColor=none;" vertex="1" parent="1">
          <mxGeometry x="680" y="-997" width="100" height="30" as="geometry" />
        </mxCell>
        <mxCell id="V7hkrKu_K13jUBI3r2nu-115" value="&lt;b&gt;GET&amp;nbsp;&lt;/b&gt;/api/book/:id" style="text;html=1;align=center;verticalAlign=middle;resizable=0;points=[];autosize=1;strokeColor=none;fillColor=none;" vertex="1" parent="1">
          <mxGeometry x="670" y="-927" width="120" height="30" as="geometry" />
        </mxCell>
      </root>
    </mxGraphModel>
  </diagram>
</mxfile>
